<svg width="448" height="449" viewBox="0 0 448 449" fill="none" xmlns="http://www.w3.org/2000/svg">
<path d="M218.667 234.667C283.468 234.667 336 182.135 336 117.333C336 52.5319 283.468 0 218.667 0C153.865 0 101.333 52.5319 101.333 117.333C101.333 182.135 153.865 234.667 218.667 234.667Z" fill="#4F46E5"/>
<path fill-rule="evenodd" clip-rule="evenodd" d="M357.333 256.128H368C375.069 256.139 381.845 258.952 386.844 263.951C391.842 268.95 394.655 275.726 394.667 282.795V314.795C394.667 319.038 396.352 323.108 399.353 326.108C402.354 329.109 406.423 330.795 410.667 330.795C414.91 330.795 418.98 329.109 421.98 326.108C424.981 323.108 426.667 319.038 426.667 314.795V282.795C426.673 274.893 425.082 267.071 421.991 259.799C418.9 252.526 414.371 245.954 408.677 240.475C402.983 234.996 396.241 230.724 388.855 227.915C381.469 225.106 373.592 223.818 365.696 224.128H357.333C341.777 224.139 326.862 230.324 315.862 241.324C304.863 252.323 298.678 267.239 298.667 282.795V314.795C298.667 319.038 300.352 323.108 303.353 326.108C306.354 329.109 310.423 330.795 314.667 330.795C318.91 330.795 322.98 329.109 325.98 326.108C328.981 323.108 330.667 319.038 330.667 314.795V282.795C330.689 275.729 333.506 268.959 338.502 263.963C343.498 258.967 350.268 256.151 357.333 256.128ZM262.464 437.589C258.196 429.304 255.98 420.115 256 410.795V336.128C256 317.909 264.299 301.632 277.333 290.88V282.795C277.333 274.24 278.699 265.813 281.323 257.835C260.592 254.63 239.644 253.032 218.667 253.056C147.797 253.056 85.056 270.784 46.1013 297.344C16.384 317.611 0 343.36 0 370.389V401.323C0.0112919 410.938 3.83586 420.156 10.6347 426.955C17.4336 433.754 26.6516 437.578 36.2667 437.589H262.464Z" fill="#4F46E5"/>
<path fill-rule="evenodd" clip-rule="evenodd" d="M448 410.795V336.128C448 326.227 444.067 316.731 437.065 309.729C430.064 302.728 420.568 298.795 410.667 298.795H314.667C304.765 298.795 295.269 302.728 288.268 309.729C281.267 316.731 277.333 326.227 277.333 336.128V410.795C277.333 431.424 294.059 448.128 314.667 448.128H410.667C420.568 448.128 430.064 444.195 437.065 437.193C444.067 430.192 448 420.696 448 410.795ZM346.667 362.795V384.128C346.667 388.371 348.352 392.441 351.353 395.442C354.353 398.442 358.423 400.128 362.667 400.128C366.91 400.128 370.98 398.442 373.98 395.442C376.981 392.441 378.667 388.371 378.667 384.128V362.795C378.667 358.551 376.981 354.482 373.98 351.481C370.98 348.48 366.91 346.795 362.667 346.795C358.423 346.795 354.353 348.48 351.353 351.481C348.352 354.482 346.667 358.551 346.667 362.795Z" fill="#4F46E5"/>
</svg>
