<svg width="698" height="432" viewBox="0 0 698 432" fill="none" xmlns="http://www.w3.org/2000/svg">
<path opacity="0.69" d="M576.196 103.657H406.955C392.643 103.657 381.041 92.0548 381.041 77.7431C381.041 63.4314 392.643 51.8287 406.955 51.8287H464.166C478.519 51.8287 490.08 40.2669 490.08 25.9144C490.08 11.5618 478.519 0 464.166 0H209.607C195.255 0 183.693 11.5618 183.693 25.9144C183.693 40.2669 195.255 51.8287 209.607 51.8287H264.825C279.177 51.8287 290.739 63.3905 290.739 77.7431C290.739 92.0957 279.177 103.657 264.825 103.657H87.4112C73.0586 103.657 61.4968 115.219 61.4968 129.572C61.4968 143.924 73.0586 155.486 87.4112 155.486H157.978C172.331 155.486 183.892 167.048 183.892 181.401C183.892 195.753 172.331 207.315 157.978 207.315H128.176C113.824 207.315 102.262 218.877 102.262 233.229C102.262 247.582 113.824 259.144 128.176 259.144H226.452V310.972H150.702C136.349 310.972 124.788 322.534 124.788 336.887C124.788 351.239 136.349 362.801 150.702 362.801H288.846C303.198 362.801 314.76 374.363 314.76 388.715C314.76 403.068 303.198 414.63 288.846 414.63H211.601C197.248 414.63 185.686 426.192 185.686 440.544C185.686 454.897 197.248 466.458 211.601 466.458H507.224C521.576 466.458 533.138 454.897 533.138 440.544C533.138 426.192 521.576 414.63 507.224 414.63H432.969V362.801H456.491C470.844 362.801 482.406 351.239 482.406 336.887C482.406 322.534 470.844 310.972 456.491 310.972H432.969V259.144H531.244C545.597 259.144 557.159 247.582 557.159 233.229C557.159 218.877 545.597 207.315 531.244 207.315H490.08C475.769 207.315 464.166 195.712 464.166 181.401C464.166 167.089 475.769 155.486 490.08 155.486H576.395C590.748 155.486 602.31 143.924 602.31 129.572C602.11 115.319 590.548 103.657 576.196 103.657Z" fill="#1F3F3E"/>
<path d="M345.359 207.315H292.832C278.48 207.315 266.918 195.753 266.918 181.4C266.918 167.048 278.48 155.486 292.832 155.486H345.359C359.711 155.486 371.273 167.048 371.273 181.4C371.273 195.753 359.711 207.315 345.359 207.315Z" fill="#0F2F2E"/>
<path opacity="0.69" d="M534.135 362.801H570.216C584.568 362.801 596.13 351.239 596.13 336.887C596.13 322.534 584.568 310.972 570.216 310.972H534.135C519.782 310.972 508.22 322.534 508.22 336.887C508.22 351.239 519.782 362.801 534.135 362.801Z" fill="#1F3F3E"/>
<path opacity="0.69" d="M622.044 259.144H609.685C595.333 259.144 583.771 247.582 583.771 233.229C583.771 218.877 595.333 207.315 609.685 207.315H622.044C636.397 207.315 647.959 218.877 647.959 233.229C647.959 247.582 636.397 259.144 622.044 259.144Z" fill="#1F3F3E"/>
<path opacity="0.69" d="M102.86 466.458H151.3C165.653 466.458 177.214 454.897 177.214 440.544C177.214 426.192 165.653 414.63 151.3 414.63H102.86C88.5075 414.63 76.9457 426.192 76.9457 440.544C76.9457 454.897 88.5075 466.458 102.86 466.458Z" fill="#1F3F3E"/>
<path opacity="0.69" d="M25.9144 155.486C40.2669 155.486 51.8287 143.924 51.8287 129.572C51.8287 115.219 40.2669 103.657 25.9144 103.657C11.5618 103.657 0 115.219 0 129.572C0 143.924 11.5618 155.486 25.9144 155.486Z" fill="#1F3F3E"/>
<path d="M482.306 310.972H370.974C356.621 310.972 345.06 299.41 345.06 285.058C345.06 270.705 356.621 259.144 370.974 259.144H482.306C496.659 259.144 508.221 270.705 508.221 285.058C508.221 299.41 496.659 310.972 482.306 310.972Z" fill="#0F2F2E"/>
<path d="M671.481 440.544H560.149C545.796 440.544 534.234 428.982 534.234 414.63C534.234 400.277 545.796 388.715 560.149 388.715H671.481C685.834 388.715 697.395 400.277 697.395 414.63C697.395 428.982 685.834 440.544 671.481 440.544Z" fill="#0F2F2E"/>
</svg>
