<svg width="892" height="892" viewBox="0 0 892 892" fill="none" xmlns="http://www.w3.org/2000/svg">
<path d="M243.81 0H216V27.81H243.81V0Z" fill="black"/>
<path d="M270.81 0H243V27.81H270.81V0Z" fill="black"/>
<path d="M351.81 0H324V27.81H351.81V0Z" fill="black"/>
<path d="M486.81 0H459V27.81H486.81V0Z" fill="black"/>
<path d="M513.81 0H486V27.81H513.81V0Z" fill="black"/>
<path d="M567.81 0H540V27.81H567.81V0Z" fill="black"/>
<path d="M648.81 0H621V27.81H648.81V0Z" fill="black"/>
<path d="M243.81 27H216V54.81H243.81V27Z" fill="black"/>
<path d="M351.81 27H324V54.81H351.81V27Z" fill="black"/>
<path d="M405.81 27H378V54.81H405.81V27Z" fill="black"/>
<path d="M432.81 27H405V54.81H432.81V27Z" fill="black"/>
<path d="M459.81 27H432V54.81H459.81V27Z" fill="black"/>
<path d="M567.81 27H540V54.81H567.81V27Z" fill="black"/>
<path d="M594.81 27H567V54.81H594.81V27Z" fill="black"/>
<path d="M648.81 27H621V54.81H648.81V27Z" fill="black"/>
<path d="M243.81 54H216V81.81H243.81V54Z" fill="black"/>
<path d="M270.81 54H243V81.81H270.81V54Z" fill="black"/>
<path d="M378.81 54H351V81.81H378.81V54Z" fill="black"/>
<path d="M486.81 54H459V81.81H486.81V54Z" fill="black"/>
<path d="M513.81 54H486V81.81H513.81V54Z" fill="black"/>
<path d="M540.81 54H513V81.81H540.81V54Z" fill="black"/>
<path d="M648.81 54H621V81.81H648.81V54Z" fill="black"/>
<path d="M297.81 81H270V108.81H297.81V81Z" fill="black"/>
<path d="M324.81 81H297V108.81H324.81V81Z" fill="black"/>
<path d="M432.81 81H405V108.81H432.81V81Z" fill="black"/>
<path d="M459.81 81H432V108.81H459.81V81Z" fill="black"/>
<path d="M486.81 81H459V108.81H486.81V81Z" fill="black"/>
<path d="M513.81 81H486V108.81H513.81V81Z" fill="black"/>
<path d="M567.81 81H540V108.81H567.81V81Z" fill="black"/>
<path d="M594.81 81H567V108.81H594.81V81Z" fill="black"/>
<path d="M621.81 81H594V108.81H621.81V81Z" fill="black"/>
<path d="M648.81 81H621V108.81H648.81V81Z" fill="black"/>
<path d="M675.81 81H648V108.81H675.81V81Z" fill="black"/>
<path d="M270.81 108H243V135.81H270.81V108Z" fill="black"/>
<path d="M297.81 108H270V135.81H297.81V108Z" fill="black"/>
<path d="M324.81 108H297V135.81H324.81V108Z" fill="black"/>
<path d="M378.81 108H351V135.81H378.81V108Z" fill="black"/>
<path d="M405.81 108H378V135.81H405.81V108Z" fill="black"/>
<path d="M486.81 108H459V135.81H486.81V108Z" fill="black"/>
<path d="M513.81 108H486V135.81H513.81V108Z" fill="black"/>
<path d="M243.81 135H216V162.81H243.81V135Z" fill="black"/>
<path d="M324.81 135H297V162.81H324.81V135Z" fill="black"/>
<path d="M351.81 135H324V162.81H351.81V135Z" fill="black"/>
<path d="M378.81 135H351V162.81H378.81V135Z" fill="black"/>
<path d="M459.81 135H432V162.81H459.81V135Z" fill="black"/>
<path d="M648.81 135H621V162.81H648.81V135Z" fill="black"/>
<path d="M675.81 135H648V162.81H675.81V135Z" fill="black"/>
<path d="M243.81 162H216V189.81H243.81V162Z" fill="black"/>
<path d="M297.81 162H270V189.81H297.81V162Z" fill="black"/>
<path d="M351.81 162H324V189.81H351.81V162Z" fill="black"/>
<path d="M405.81 162H378V189.81H405.81V162Z" fill="black"/>
<path d="M459.81 162H432V189.81H459.81V162Z" fill="black"/>
<path d="M513.81 162H486V189.81H513.81V162Z" fill="black"/>
<path d="M567.81 162H540V189.81H567.81V162Z" fill="black"/>
<path d="M621.81 162H594V189.81H621.81V162Z" fill="black"/>
<path d="M675.81 162H648V189.81H675.81V162Z" fill="black"/>
<path d="M243.81 189H216V216.81H243.81V189Z" fill="black"/>
<path d="M270.81 189H243V216.81H270.81V189Z" fill="black"/>
<path d="M351.81 189H324V216.81H351.81V189Z" fill="black"/>
<path d="M459.81 189H432V216.81H459.81V189Z" fill="black"/>
<path d="M486.81 189H459V216.81H486.81V189Z" fill="black"/>
<path d="M513.81 189H486V216.81H513.81V189Z" fill="black"/>
<path d="M567.81 189H540V216.81H567.81V189Z" fill="black"/>
<path d="M621.81 189H594V216.81H621.81V189Z" fill="black"/>
<path d="M648.81 189H621V216.81H648.81V189Z" fill="black"/>
<path d="M81.81 216H54V243.81H81.81V216Z" fill="black"/>
<path d="M108.81 216H81V243.81H108.81V216Z" fill="black"/>
<path d="M135.81 216H108V243.81H135.81V216Z" fill="black"/>
<path d="M189.81 216H162V243.81H189.81V216Z" fill="black"/>
<path d="M243.81 216H216V243.81H243.81V216Z" fill="black"/>
<path d="M270.81 216H243V243.81H270.81V216Z" fill="black"/>
<path d="M405.81 216H378V243.81H405.81V216Z" fill="black"/>
<path d="M486.81 216H459V243.81H486.81V216Z" fill="black"/>
<path d="M513.81 216H486V243.81H513.81V216Z" fill="black"/>
<path d="M540.81 216H513V243.81H540.81V216Z" fill="black"/>
<path d="M567.81 216H540V243.81H567.81V216Z" fill="black"/>
<path d="M594.81 216H567V243.81H594.81V216Z" fill="black"/>
<path d="M648.81 216H621V243.81H648.81V216Z" fill="black"/>
<path d="M675.81 216H648V243.81H675.81V216Z" fill="black"/>
<path d="M702.81 216H675V243.81H702.81V216Z" fill="black"/>
<path d="M729.81 216H702V243.81H729.81V216Z" fill="black"/>
<path d="M756.81 216H729V243.81H756.81V216Z" fill="black"/>
<path d="M837.81 216H810V243.81H837.81V216Z" fill="black"/>
<path d="M864.81 216H837V243.81H864.81V216Z" fill="black"/>
<path d="M891.81 216H864V243.81H891.81V216Z" fill="black"/>
<path d="M54.81 243H27V270.81H54.81V243Z" fill="black"/>
<path d="M162.81 243H135V270.81H162.81V243Z" fill="black"/>
<path d="M216.81 243H189V270.81H216.81V243Z" fill="black"/>
<path d="M243.81 243H216V270.81H243.81V243Z" fill="black"/>
<path d="M297.81 243H270V270.81H297.81V243Z" fill="black"/>
<path d="M324.81 243H297V270.81H324.81V243Z" fill="black"/>
<path d="M351.81 243H324V270.81H351.81V243Z" fill="black"/>
<path d="M378.81 243H351V270.81H378.81V243Z" fill="black"/>
<path d="M459.81 243H432V270.81H459.81V243Z" fill="black"/>
<path d="M486.81 243H459V270.81H486.81V243Z" fill="black"/>
<path d="M540.81 243H513V270.81H540.81V243Z" fill="black"/>
<path d="M567.81 243H540V270.81H567.81V243Z" fill="black"/>
<path d="M594.81 243H567V270.81H594.81V243Z" fill="black"/>
<path d="M621.81 243H594V270.81H621.81V243Z" fill="black"/>
<path d="M675.81 243H648V270.81H675.81V243Z" fill="black"/>
<path d="M702.81 243H675V270.81H702.81V243Z" fill="black"/>
<path d="M729.81 243H702V270.81H729.81V243Z" fill="black"/>
<path d="M810.81 243H783V270.81H810.81V243Z" fill="black"/>
<path d="M837.81 243H810V270.81H837.81V243Z" fill="black"/>
<path d="M864.81 243H837V270.81H864.81V243Z" fill="black"/>
<path d="M81.81 270H54V297.81H81.81V270Z" fill="black"/>
<path d="M135.81 270H108V297.81H135.81V270Z" fill="black"/>
<path d="M189.81 270H162V297.81H189.81V270Z" fill="black"/>
<path d="M270.81 270H243V297.81H270.81V270Z" fill="black"/>
<path d="M297.81 270H270V297.81H297.81V270Z" fill="black"/>
<path d="M324.81 270H297V297.81H324.81V270Z" fill="black"/>
<path d="M378.81 270H351V297.81H378.81V270Z" fill="black"/>
<path d="M513.81 270H486V297.81H513.81V270Z" fill="black"/>
<path d="M540.81 270H513V297.81H540.81V270Z" fill="black"/>
<path d="M594.81 270H567V297.81H594.81V270Z" fill="black"/>
<path d="M756.81 270H729V297.81H756.81V270Z" fill="black"/>
<path d="M810.81 270H783V297.81H810.81V270Z" fill="black"/>
<path d="M864.81 270H837V297.81H864.81V270Z" fill="black"/>
<path d="M81.81 297H54V324.81H81.81V297Z" fill="black"/>
<path d="M135.81 297H108V324.81H135.81V297Z" fill="black"/>
<path d="M216.81 297H189V324.81H216.81V297Z" fill="black"/>
<path d="M243.81 297H216V324.81H243.81V297Z" fill="black"/>
<path d="M270.81 297H243V324.81H270.81V297Z" fill="black"/>
<path d="M297.81 297H270V324.81H297.81V297Z" fill="black"/>
<path d="M351.81 297H324V324.81H351.81V297Z" fill="black"/>
<path d="M378.81 297H351V324.81H378.81V297Z" fill="black"/>
<path d="M432.81 297H405V324.81H432.81V297Z" fill="black"/>
<path d="M459.81 297H432V324.81H459.81V297Z" fill="black"/>
<path d="M486.81 297H459V324.81H486.81V297Z" fill="black"/>
<path d="M513.81 297H486V324.81H513.81V297Z" fill="black"/>
<path d="M540.81 297H513V324.81H540.81V297Z" fill="black"/>
<path d="M567.81 297H540V324.81H567.81V297Z" fill="black"/>
<path d="M594.81 297H567V324.81H594.81V297Z" fill="black"/>
<path d="M621.81 297H594V324.81H621.81V297Z" fill="black"/>
<path d="M648.81 297H621V324.81H648.81V297Z" fill="black"/>
<path d="M675.81 297H648V324.81H675.81V297Z" fill="black"/>
<path d="M702.81 297H675V324.81H702.81V297Z" fill="black"/>
<path d="M837.81 297H810V324.81H837.81V297Z" fill="black"/>
<path d="M891.81 297H864V324.81H891.81V297Z" fill="black"/>
<path d="M27.81 324H0V351.81H27.81V324Z" fill="black"/>
<path d="M54.81 324H27V351.81H54.81V324Z" fill="black"/>
<path d="M189.81 324H162V351.81H189.81V324Z" fill="black"/>
<path d="M216.81 324H189V351.81H216.81V324Z" fill="black"/>
<path d="M243.81 324H216V351.81H243.81V324Z" fill="black"/>
<path d="M378.81 324H351V351.81H378.81V324Z" fill="black"/>
<path d="M486.81 324H459V351.81H486.81V324Z" fill="black"/>
<path d="M513.81 324H486V351.81H513.81V324Z" fill="black"/>
<path d="M540.81 324H513V351.81H540.81V324Z" fill="black"/>
<path d="M567.81 324H540V351.81H567.81V324Z" fill="black"/>
<path d="M594.81 324H567V351.81H594.81V324Z" fill="black"/>
<path d="M702.81 324H675V351.81H702.81V324Z" fill="black"/>
<path d="M837.81 324H810V351.81H837.81V324Z" fill="black"/>
<path d="M864.81 324H837V351.81H864.81V324Z" fill="black"/>
<path d="M27.81 351H0V378.81H27.81V351Z" fill="black"/>
<path d="M54.81 351H27V378.81H54.81V351Z" fill="black"/>
<path d="M81.81 351H54V378.81H81.81V351Z" fill="black"/>
<path d="M108.81 351H81V378.81H108.81V351Z" fill="black"/>
<path d="M135.81 351H108V378.81H135.81V351Z" fill="black"/>
<path d="M270.81 351H243V378.81H270.81V351Z" fill="black"/>
<path d="M297.81 351H270V378.81H297.81V351Z" fill="black"/>
<path d="M351.81 351H324V378.81H351.81V351Z" fill="black"/>
<path d="M378.81 351H351V378.81H378.81V351Z" fill="black"/>
<path d="M405.81 351H378V378.81H405.81V351Z" fill="black"/>
<path d="M432.81 351H405V378.81H432.81V351Z" fill="black"/>
<path d="M540.81 351H513V378.81H540.81V351Z" fill="black"/>
<path d="M594.81 351H567V378.81H594.81V351Z" fill="black"/>
<path d="M621.81 351H594V378.81H621.81V351Z" fill="black"/>
<path d="M729.81 351H702V378.81H729.81V351Z" fill="black"/>
<path d="M756.81 351H729V378.81H756.81V351Z" fill="black"/>
<path d="M783.81 351H756V378.81H783.81V351Z" fill="black"/>
<path d="M837.81 351H810V378.81H837.81V351Z" fill="black"/>
<path d="M891.81 351H864V378.81H891.81V351Z" fill="black"/>
<path d="M27.81 378H0V405.81H27.81V378Z" fill="black"/>
<path d="M54.81 378H27V405.81H54.81V378Z" fill="black"/>
<path d="M81.81 378H54V405.81H81.81V378Z" fill="black"/>
<path d="M135.81 378H108V405.81H135.81V378Z" fill="black"/>
<path d="M189.81 378H162V405.81H189.81V378Z" fill="black"/>
<path d="M297.81 378H270V405.81H297.81V378Z" fill="black"/>
<path d="M324.81 378H297V405.81H324.81V378Z" fill="black"/>
<path d="M351.81 378H324V405.81H351.81V378Z" fill="black"/>
<path d="M486.81 378H459V405.81H486.81V378Z" fill="black"/>
<path d="M621.81 378H594V405.81H621.81V378Z" fill="black"/>
<path d="M648.81 378H621V405.81H648.81V378Z" fill="black"/>
<path d="M783.81 378H756V405.81H783.81V378Z" fill="black"/>
<path d="M810.81 378H783V405.81H810.81V378Z" fill="black"/>
<path d="M864.81 378H837V405.81H864.81V378Z" fill="black"/>
<path d="M27.81 405H0V432.81H27.81V405Z" fill="black"/>
<path d="M108.81 405H81V432.81H108.81V405Z" fill="black"/>
<path d="M162.81 405H135V432.81H162.81V405Z" fill="black"/>
<path d="M216.81 405H189V432.81H216.81V405Z" fill="black"/>
<path d="M297.81 405H270V432.81H297.81V405Z" fill="black"/>
<path d="M324.81 405H297V432.81H324.81V405Z" fill="black"/>
<path d="M351.81 405H324V432.81H351.81V405Z" fill="black"/>
<path d="M378.81 405H351V432.81H378.81V405Z" fill="black"/>
<path d="M459.81 405H432V432.81H459.81V405Z" fill="black"/>
<path d="M513.81 405H486V432.81H513.81V405Z" fill="black"/>
<path d="M540.81 405H513V432.81H540.81V405Z" fill="black"/>
<path d="M567.81 405H540V432.81H567.81V405Z" fill="black"/>
<path d="M621.81 405H594V432.81H621.81V405Z" fill="black"/>
<path d="M675.81 405H648V432.81H675.81V405Z" fill="black"/>
<path d="M756.81 405H729V432.81H756.81V405Z" fill="black"/>
<path d="M783.81 405H756V432.81H783.81V405Z" fill="black"/>
<path d="M810.81 405H783V432.81H810.81V405Z" fill="black"/>
<path d="M837.81 405H810V432.81H837.81V405Z" fill="black"/>
<path d="M27.81 432H0V459.81H27.81V432Z" fill="black"/>
<path d="M81.81 432H54V459.81H81.81V432Z" fill="black"/>
<path d="M135.81 432H108V459.81H135.81V432Z" fill="black"/>
<path d="M162.81 432H135V459.81H162.81V432Z" fill="black"/>
<path d="M189.81 432H162V459.81H189.81V432Z" fill="black"/>
<path d="M216.81 432H189V459.81H216.81V432Z" fill="black"/>
<path d="M243.81 432H216V459.81H243.81V432Z" fill="black"/>
<path d="M324.81 432H297V459.81H324.81V432Z" fill="black"/>
<path d="M351.81 432H324V459.81H351.81V432Z" fill="black"/>
<path d="M432.81 432H405V459.81H432.81V432Z" fill="black"/>
<path d="M486.81 432H459V459.81H486.81V432Z" fill="black"/>
<path d="M621.81 432H594V459.81H621.81V432Z" fill="black"/>
<path d="M648.81 432H621V459.81H648.81V432Z" fill="black"/>
<path d="M675.81 432H648V459.81H675.81V432Z" fill="black"/>
<path d="M702.81 432H675V459.81H702.81V432Z" fill="black"/>
<path d="M756.81 432H729V459.81H756.81V432Z" fill="black"/>
<path d="M783.81 432H756V459.81H783.81V432Z" fill="black"/>
<path d="M810.81 432H783V459.81H810.81V432Z" fill="black"/>
<path d="M864.81 432H837V459.81H864.81V432Z" fill="black"/>
<path d="M54.81 459H27V486.81H54.81V459Z" fill="black"/>
<path d="M81.81 459H54V486.81H81.81V459Z" fill="black"/>
<path d="M108.81 459H81V486.81H108.81V459Z" fill="black"/>
<path d="M135.81 459H108V486.81H135.81V459Z" fill="black"/>
<path d="M243.81 459H216V486.81H243.81V459Z" fill="black"/>
<path d="M297.81 459H270V486.81H297.81V459Z" fill="black"/>
<path d="M324.81 459H297V486.81H324.81V459Z" fill="black"/>
<path d="M486.81 459H459V486.81H486.81V459Z" fill="black"/>
<path d="M540.81 459H513V486.81H540.81V459Z" fill="black"/>
<path d="M594.81 459H567V486.81H594.81V459Z" fill="black"/>
<path d="M621.81 459H594V486.81H621.81V459Z" fill="black"/>
<path d="M648.81 459H621V486.81H648.81V459Z" fill="black"/>
<path d="M675.81 459H648V486.81H675.81V459Z" fill="black"/>
<path d="M756.81 459H729V486.81H756.81V459Z" fill="black"/>
<path d="M783.81 459H756V486.81H783.81V459Z" fill="black"/>
<path d="M864.81 459H837V486.81H864.81V459Z" fill="black"/>
<path d="M54.81 486H27V513.81H54.81V486Z" fill="black"/>
<path d="M81.81 486H54V513.81H81.81V486Z" fill="black"/>
<path d="M108.81 486H81V513.81H108.81V486Z" fill="black"/>
<path d="M189.81 486H162V513.81H189.81V486Z" fill="black"/>
<path d="M216.81 486H189V513.81H216.81V486Z" fill="black"/>
<path d="M243.81 486H216V513.81H243.81V486Z" fill="black"/>
<path d="M324.81 486H297V513.81H324.81V486Z" fill="black"/>
<path d="M378.81 486H351V513.81H378.81V486Z" fill="black"/>
<path d="M432.81 486H405V513.81H432.81V486Z" fill="black"/>
<path d="M459.81 486H432V513.81H459.81V486Z" fill="black"/>
<path d="M486.81 486H459V513.81H486.81V486Z" fill="black"/>
<path d="M540.81 486H513V513.81H540.81V486Z" fill="black"/>
<path d="M594.81 486H567V513.81H594.81V486Z" fill="black"/>
<path d="M621.81 486H594V513.81H621.81V486Z" fill="black"/>
<path d="M648.81 486H621V513.81H648.81V486Z" fill="black"/>
<path d="M675.81 486H648V513.81H675.81V486Z" fill="black"/>
<path d="M837.81 486H810V513.81H837.81V486Z" fill="black"/>
<path d="M216.81 513H189V540.81H216.81V513Z" fill="black"/>
<path d="M243.81 513H216V540.81H243.81V513Z" fill="black"/>
<path d="M351.81 513H324V540.81H351.81V513Z" fill="black"/>
<path d="M540.81 513H513V540.81H540.81V513Z" fill="black"/>
<path d="M594.81 513H567V540.81H594.81V513Z" fill="black"/>
<path d="M675.81 513H648V540.81H675.81V513Z" fill="black"/>
<path d="M702.81 513H675V540.81H702.81V513Z" fill="black"/>
<path d="M729.81 513H702V540.81H729.81V513Z" fill="black"/>
<path d="M810.81 513H783V540.81H810.81V513Z" fill="black"/>
<path d="M837.81 513H810V540.81H837.81V513Z" fill="black"/>
<path d="M864.81 513H837V540.81H864.81V513Z" fill="black"/>
<path d="M891.81 513H864V540.81H891.81V513Z" fill="black"/>
<path d="M54.81 540H27V567.81H54.81V540Z" fill="black"/>
<path d="M162.81 540H135V567.81H162.81V540Z" fill="black"/>
<path d="M189.81 540H162V567.81H189.81V540Z" fill="black"/>
<path d="M216.81 540H189V567.81H216.81V540Z" fill="black"/>
<path d="M243.81 540H216V567.81H243.81V540Z" fill="black"/>
<path d="M270.81 540H243V567.81H270.81V540Z" fill="black"/>
<path d="M405.81 540H378V567.81H405.81V540Z" fill="black"/>
<path d="M486.81 540H459V567.81H486.81V540Z" fill="black"/>
<path d="M540.81 540H513V567.81H540.81V540Z" fill="black"/>
<path d="M567.81 540H540V567.81H567.81V540Z" fill="black"/>
<path d="M675.81 540H648V567.81H675.81V540Z" fill="black"/>
<path d="M810.81 540H783V567.81H810.81V540Z" fill="black"/>
<path d="M27.81 567H0V594.81H27.81V567Z" fill="black"/>
<path d="M54.81 567H27V594.81H54.81V567Z" fill="black"/>
<path d="M108.81 567H81V594.81H108.81V567Z" fill="black"/>
<path d="M216.81 567H189V594.81H216.81V567Z" fill="black"/>
<path d="M243.81 567H216V594.81H243.81V567Z" fill="black"/>
<path d="M297.81 567H270V594.81H297.81V567Z" fill="black"/>
<path d="M378.81 567H351V594.81H378.81V567Z" fill="black"/>
<path d="M405.81 567H378V594.81H405.81V567Z" fill="black"/>
<path d="M621.81 567H594V594.81H621.81V567Z" fill="black"/>
<path d="M675.81 567H648V594.81H675.81V567Z" fill="black"/>
<path d="M729.81 567H702V594.81H729.81V567Z" fill="black"/>
<path d="M756.81 567H729V594.81H756.81V567Z" fill="black"/>
<path d="M783.81 567H756V594.81H783.81V567Z" fill="black"/>
<path d="M810.81 567H783V594.81H810.81V567Z" fill="black"/>
<path d="M27.81 594H0V621.81H27.81V594Z" fill="black"/>
<path d="M189.81 594H162V621.81H189.81V594Z" fill="black"/>
<path d="M216.81 594H189V621.81H216.81V594Z" fill="black"/>
<path d="M243.81 594H216V621.81H243.81V594Z" fill="black"/>
<path d="M270.81 594H243V621.81H270.81V594Z" fill="black"/>
<path d="M297.81 594H270V621.81H297.81V594Z" fill="black"/>
<path d="M351.81 594H324V621.81H351.81V594Z" fill="black"/>
<path d="M378.81 594H351V621.81H378.81V594Z" fill="black"/>
<path d="M405.81 594H378V621.81H405.81V594Z" fill="black"/>
<path d="M432.81 594H405V621.81H432.81V594Z" fill="black"/>
<path d="M486.81 594H459V621.81H486.81V594Z" fill="black"/>
<path d="M540.81 594H513V621.81H540.81V594Z" fill="black"/>
<path d="M567.81 594H540V621.81H567.81V594Z" fill="black"/>
<path d="M675.81 594H648V621.81H675.81V594Z" fill="black"/>
<path d="M810.81 594H783V621.81H810.81V594Z" fill="black"/>
<path d="M891.81 594H864V621.81H891.81V594Z" fill="black"/>
<path d="M27.81 621H0V648.81H27.81V621Z" fill="black"/>
<path d="M81.81 621H54V648.81H81.81V621Z" fill="black"/>
<path d="M135.81 621H108V648.81H135.81V621Z" fill="black"/>
<path d="M162.81 621H135V648.81H162.81V621Z" fill="black"/>
<path d="M216.81 621H189V648.81H216.81V621Z" fill="black"/>
<path d="M270.81 621H243V648.81H270.81V621Z" fill="black"/>
<path d="M297.81 621H270V648.81H297.81V621Z" fill="black"/>
<path d="M351.81 621H324V648.81H351.81V621Z" fill="black"/>
<path d="M405.81 621H378V648.81H405.81V621Z" fill="black"/>
<path d="M594.81 621H567V648.81H594.81V621Z" fill="black"/>
<path d="M621.81 621H594V648.81H621.81V621Z" fill="black"/>
<path d="M675.81 621H648V648.81H675.81V621Z" fill="black"/>
<path d="M756.81 621H729V648.81H756.81V621Z" fill="black"/>
<path d="M27.81 648H0V675.81H27.81V648Z" fill="black"/>
<path d="M81.81 648H54V675.81H81.81V648Z" fill="black"/>
<path d="M189.81 648H162V675.81H189.81V648Z" fill="black"/>
<path d="M216.81 648H189V675.81H216.81V648Z" fill="black"/>
<path d="M270.81 648H243V675.81H270.81V648Z" fill="black"/>
<path d="M351.81 648H324V675.81H351.81V648Z" fill="black"/>
<path d="M405.81 648H378V675.81H405.81V648Z" fill="black"/>
<path d="M432.81 648H405V675.81H432.81V648Z" fill="black"/>
<path d="M459.81 648H432V675.81H459.81V648Z" fill="black"/>
<path d="M486.81 648H459V675.81H486.81V648Z" fill="black"/>
<path d="M594.81 648H567V675.81H594.81V648Z" fill="black"/>
<path d="M621.81 648H594V675.81H621.81V648Z" fill="black"/>
<path d="M675.81 648H648V675.81H675.81V648Z" fill="black"/>
<path d="M702.81 648H675V675.81H702.81V648Z" fill="black"/>
<path d="M729.81 648H702V675.81H729.81V648Z" fill="black"/>
<path d="M756.81 648H729V675.81H756.81V648Z" fill="black"/>
<path d="M783.81 648H756V675.81H783.81V648Z" fill="black"/>
<path d="M810.81 648H783V675.81H810.81V648Z" fill="black"/>
<path d="M243.81 675H216V702.81H243.81V675Z" fill="black"/>
<path d="M351.81 675H324V702.81H351.81V675Z" fill="black"/>
<path d="M405.81 675H378V702.81H405.81V675Z" fill="black"/>
<path d="M432.81 675H405V702.81H432.81V675Z" fill="black"/>
<path d="M459.81 675H432V702.81H459.81V675Z" fill="black"/>
<path d="M540.81 675H513V702.81H540.81V675Z" fill="black"/>
<path d="M675.81 675H648V702.81H675.81V675Z" fill="black"/>
<path d="M783.81 675H756V702.81H783.81V675Z" fill="black"/>
<path d="M837.81 675H810V702.81H837.81V675Z" fill="black"/>
<path d="M297.81 702H270V729.81H297.81V702Z" fill="black"/>
<path d="M351.81 702H324V729.81H351.81V702Z" fill="black"/>
<path d="M486.81 702H459V729.81H486.81V702Z" fill="black"/>
<path d="M621.81 702H594V729.81H621.81V702Z" fill="black"/>
<path d="M648.81 702H621V729.81H648.81V702Z" fill="black"/>
<path d="M675.81 702H648V729.81H675.81V702Z" fill="black"/>
<path d="M729.81 702H702V729.81H729.81V702Z" fill="black"/>
<path d="M783.81 702H756V729.81H783.81V702Z" fill="black"/>
<path d="M837.81 702H810V729.81H837.81V702Z" fill="black"/>
<path d="M270.81 729H243V756.81H270.81V729Z" fill="black"/>
<path d="M405.81 729H378V756.81H405.81V729Z" fill="black"/>
<path d="M540.81 729H513V756.81H540.81V729Z" fill="black"/>
<path d="M675.81 729H648V756.81H675.81V729Z" fill="black"/>
<path d="M783.81 729H756V756.81H783.81V729Z" fill="black"/>
<path d="M837.81 729H810V756.81H837.81V729Z" fill="black"/>
<path d="M891.81 729H864V756.81H891.81V729Z" fill="black"/>
<path d="M243.81 756H216V783.81H243.81V756Z" fill="black"/>
<path d="M270.81 756H243V783.81H270.81V756Z" fill="black"/>
<path d="M297.81 756H270V783.81H297.81V756Z" fill="black"/>
<path d="M378.81 756H351V783.81H378.81V756Z" fill="black"/>
<path d="M459.81 756H432V783.81H459.81V756Z" fill="black"/>
<path d="M486.81 756H459V783.81H486.81V756Z" fill="black"/>
<path d="M513.81 756H486V783.81H513.81V756Z" fill="black"/>
<path d="M567.81 756H540V783.81H567.81V756Z" fill="black"/>
<path d="M594.81 756H567V783.81H594.81V756Z" fill="black"/>
<path d="M621.81 756H594V783.81H621.81V756Z" fill="black"/>
<path d="M675.81 756H648V783.81H675.81V756Z" fill="black"/>
<path d="M702.81 756H675V783.81H702.81V756Z" fill="black"/>
<path d="M729.81 756H702V783.81H729.81V756Z" fill="black"/>
<path d="M756.81 756H729V783.81H756.81V756Z" fill="black"/>
<path d="M783.81 756H756V783.81H783.81V756Z" fill="black"/>
<path d="M810.81 756H783V783.81H810.81V756Z" fill="black"/>
<path d="M837.81 756H810V783.81H837.81V756Z" fill="black"/>
<path d="M243.81 783H216V810.81H243.81V783Z" fill="black"/>
<path d="M297.81 783H270V810.81H297.81V783Z" fill="black"/>
<path d="M324.81 783H297V810.81H324.81V783Z" fill="black"/>
<path d="M351.81 783H324V810.81H351.81V783Z" fill="black"/>
<path d="M432.81 783H405V810.81H432.81V783Z" fill="black"/>
<path d="M459.81 783H432V810.81H459.81V783Z" fill="black"/>
<path d="M486.81 783H459V810.81H486.81V783Z" fill="black"/>
<path d="M513.81 783H486V810.81H513.81V783Z" fill="black"/>
<path d="M540.81 783H513V810.81H540.81V783Z" fill="black"/>
<path d="M567.81 783H540V810.81H567.81V783Z" fill="black"/>
<path d="M648.81 783H621V810.81H648.81V783Z" fill="black"/>
<path d="M783.81 783H756V810.81H783.81V783Z" fill="black"/>
<path d="M243.81 810H216V837.81H243.81V810Z" fill="black"/>
<path d="M270.81 810H243V837.81H270.81V810Z" fill="black"/>
<path d="M324.81 810H297V837.81H324.81V810Z" fill="black"/>
<path d="M378.81 810H351V837.81H378.81V810Z" fill="black"/>
<path d="M459.81 810H432V837.81H459.81V810Z" fill="black"/>
<path d="M540.81 810H513V837.81H540.81V810Z" fill="black"/>
<path d="M567.81 810H540V837.81H567.81V810Z" fill="black"/>
<path d="M729.81 810H702V837.81H729.81V810Z" fill="black"/>
<path d="M810.81 810H783V837.81H810.81V810Z" fill="black"/>
<path d="M351.81 837H324V864.81H351.81V837Z" fill="black"/>
<path d="M378.81 837H351V864.81H378.81V837Z" fill="black"/>
<path d="M405.81 837H378V864.81H405.81V837Z" fill="black"/>
<path d="M432.81 837H405V864.81H432.81V837Z" fill="black"/>
<path d="M459.81 837H432V864.81H459.81V837Z" fill="black"/>
<path d="M540.81 837H513V864.81H540.81V837Z" fill="black"/>
<path d="M567.81 837H540V864.81H567.81V837Z" fill="black"/>
<path d="M621.81 837H594V864.81H621.81V837Z" fill="black"/>
<path d="M675.81 837H648V864.81H675.81V837Z" fill="black"/>
<path d="M702.81 837H675V864.81H702.81V837Z" fill="black"/>
<path d="M729.81 837H702V864.81H729.81V837Z" fill="black"/>
<path d="M756.81 837H729V864.81H756.81V837Z" fill="black"/>
<path d="M837.81 837H810V864.81H837.81V837Z" fill="black"/>
<path d="M270.81 864H243V891.81H270.81V864Z" fill="black"/>
<path d="M324.81 864H297V891.81H324.81V864Z" fill="black"/>
<path d="M432.81 864H405V891.81H432.81V864Z" fill="black"/>
<path d="M459.81 864H432V891.81H459.81V864Z" fill="black"/>
<path d="M567.81 864H540V891.81H567.81V864Z" fill="black"/>
<path d="M648.81 864H621V891.81H648.81V864Z" fill="black"/>
<path d="M729.81 864H702V891.81H729.81V864Z" fill="black"/>
<path d="M837.81 864H810V891.81H837.81V864Z" fill="black"/>
<path d="M864.81 864H837V891.81H864.81V864Z" fill="black"/>
<path d="M0 0V189H189V0H0ZM162 162H27V27H162V162Z" fill="black"/>
<path d="M702 0V189H891V0H702ZM864 162H729V27H864V162Z" fill="black"/>
<path d="M0 702V891H189V702H0ZM162 864H27V729H162V864Z" fill="black"/>
<path d="M135 54H54V135H135V54Z" fill="black"/>
<path d="M837 54H756V135H837V54Z" fill="black"/>
<path d="M135 756H54V837H135V756Z" fill="black"/>
</svg>
